<?xml version="1.0" encoding="UTF-8" standalone="no"?>
<!-- Created with Inkscape (http://www.inkscape.org/) -->
<svg xmlns:rdf="http://www.w3.org/1999/02/22-rdf-syntax-ns#" xmlns="http://www.w3.org/2000/svg" height="20" width="19.995" version="1.1" xmlns:cc="http://creativecommons.org/ns#" xmlns:dc="http://purl.org/dc/elements/1.1/">
	<metadata>
		<rdf:RDF>
			<cc:Work rdf:about="">
				<dc:format>image/svg+xml</dc:format>
				<dc:type rdf:resource="http://purl.org/dc/dcmitype/StillImage"/>
				<dc:title/>
			</cc:Work>
		</rdf:RDF>
	</metadata>
	<path fill="#ff4081" d="m10.405,16.042-0.2141,0c-2.5821,0-5.699-1.9904-5.699-4.5317,0-0.3101,0.42362-0.5618,0.73368-0.5618,0.31012,0,0.68682,0.27468,0.68682,0.56429,0,1.7847,2.326,2.9633,4.2785,2.9633h0.21404c1.9525,0,3.8994-1.1477,3.8994-2.8929,0-0.28989,0.42318-0.55931,0.73364-0.55931,0.31018,0,0.68682,0.2514,0.68682,0.5618,0.00011,2.499-2.7376,4.4564-5.3198,4.4564z"/>
	<path fill="#ff4081" d="M9.9976,20c-5.5129,0-9.9976-4.486-9.9976-10-0.000059999-5.514,4.4844-10,9.9976-10,5.5125,0,9.9976,4.486,9.9976,10s-4.485,10-9.9974,10zm0.0000022-17.988c-4.4032,0-7.9857,3.5833-7.9857,7.9877s3.5824,7.9876,7.9857,7.9876c4.4035,0,7.9857-3.5833,7.9857-7.9877s-3.5824-7.9876-7.9857-7.9876z"/>
	<path style="enable-background:accumulate;color:#000000;" d="m11.295,8.0804a2.0982,1.7411,0,1,1,-4.1964,0,2.0982,1.7411,0,1,1,4.1964,0z" fill-rule="nonzero" transform="translate(-1.8481917,-0.69196429)" fill="#ff4081"/>
	<path style="enable-background:accumulate;color:#000000;" d="m11.295,8.0804a2.0982,1.7411,0,1,1,-4.1964,0,2.0982,1.7411,0,1,1,4.1964,0z" fill-rule="nonzero" transform="translate(3.8616072,-0.69196429)" fill="#ff4081"/>
</svg>
